<?xml version="1.0" encoding="utf-8"?>
<!-- Generator: Adobe Illustrator 25.4.1, SVG Export Plug-In . SVG Version: 6.00 Build 0)  -->
<svg version="1.1" id="Layer_1" xmlns="http://www.w3.org/2000/svg" xmlns:xlink="http://www.w3.org/1999/xlink" x="0px" y="0px"
	 viewBox="0 0 551.1 558.8" style="enable-background:new 0 0 551.1 558.8;" xml:space="preserve">
<style type="text/css">
	.st0{fill:#FF6875;}
	.st1{fill:#FFFFFF;fill-opacity:0.1569;stroke:#000000;stroke-linecap:round;stroke-miterlimit:10;}
	.st2{fill:#FFFFFF;fill-opacity:0.1569;}
	.st3{fill:none;stroke:#FFFFFF;stroke-linecap:round;stroke-miterlimit:10;}
	.st4{fill:#FFFFFF;}
</style>
<rect class="st0" width="551.1" height="558.8"/>
<g>
	<path class="st1" d="M25.5,526.2h500v-500h-500V526.2z"/>
	<path class="st2" d="M25.5,526.2h1v-500h-1V526.2z"/>
	<path class="st2" d="M42.8,526.2h1v-500h-1V526.2z"/>
	<path class="st2" d="M60,526.2h1v-500h-1V526.2z"/>
	<path class="st2" d="M77.3,526.2h1v-500h-1V526.2z"/>
	<path class="st2" d="M94.5,526.2h1v-500h-1V526.2z"/>
	<path class="st2" d="M111.7,526.2h1v-500h-1V526.2z"/>
	<path class="st2" d="M129,526.2h1v-500h-1V526.2z"/>
	<path class="st2" d="M146.2,526.2h1v-500h-1V526.2z"/>
	<path class="st2" d="M163.5,526.2h1v-500h-1V526.2z"/>
	<path class="st2" d="M180.7,526.2h1v-500h-1V526.2z"/>
	<path class="st2" d="M197.9,526.2h1v-500h-1V526.2z"/>
	<path class="st2" d="M215.2,526.2h1v-500h-1V526.2z"/>
	<path class="st2" d="M232.4,526.2h1v-500h-1V526.2z"/>
	<path class="st2" d="M249.7,526.2h1v-500h-1V526.2z"/>
	<path class="st2" d="M266.9,526.2h1v-500h-1V526.2z"/>
	<path class="st2" d="M284.1,526.2h1v-500h-1V526.2z"/>
	<path class="st2" d="M301.4,526.2h1v-500h-1V526.2z"/>
	<path class="st2" d="M318.6,526.2h1v-500h-1V526.2z"/>
	<path class="st2" d="M335.9,526.2h1v-500h-1V526.2z"/>
	<path class="st2" d="M353.1,526.2h1v-500h-1V526.2z"/>
	<path class="st2" d="M370.4,526.2h1v-500h-1V526.2z"/>
	<path class="st2" d="M387.6,526.2h1v-500h-1V526.2z"/>
	<path class="st2" d="M404.8,526.2h1v-500h-1V526.2z"/>
	<path class="st2" d="M422.1,526.2h1v-500h-1V526.2z"/>
	<path class="st2" d="M439.3,526.2h1v-500h-1V526.2z"/>
	<path class="st2" d="M456.6,526.2h1v-500h-1V526.2z"/>
	<path class="st2" d="M473.8,526.2h1v-500h-1V526.2z"/>
	<path class="st2" d="M491,526.2h1v-500h-1V526.2z"/>
	<path class="st2" d="M508.3,526.2h1v-500h-1V526.2z"/>
	<path class="st3" d="M25.5,455.1c2.9,8.5,11.5,59.6,17.2,51.1S54.3,403.9,60,403.9s11.5,85.2,17.2,102.2c5.7,17,11.5,51.1,17.2,0
		s11.5-281.1,17.2-306.7c5.7-25.6,11.5,119.3,17.2,153.3c5.7,34.1,11.5,42.6,17.2,51.1c5.7,8.5,11.5,0,17.2,0s11.5-8.5,17.2,0
		c5.7,8.5,11.5,42.6,17.2,51.1c5.7,8.5,11.5,42.6,17.2,0s11.5-247,17.2-255.6c5.7-8.5,11.5,213,17.2,204.4
		c5.7-8.5,11.5-255.6,17.2-255.6s11.5,213,17.2,255.6s11.5,0,17.2,0s11.5,8.5,17.2,0c5.7-8.5,11.5,8.5,17.2-51.1
		c5.7-59.6,11.5-332.2,17.2-306.7s11.5,383.3,17.2,460s11.5,25.6,17.2,0s11.5-153.3,17.2-153.3s11.5,136.3,17.2,153.3
		c5.7,17,11.5-42.6,17.2-51.1c5.7-8.5,11.5-8.5,17.2,0c5.7,8.5,11.5,51.1,17.2,51.1s11.5-34.1,17.2-51.1c5.7-17,11.5-8.5,17.2-51.1
		s14.4-170.4,17.2-204.4"/>
	<g>
		<path class="st4" d="M23.5,455.1c0-1.1,0.9-2,2-2s2,0.9,2,2c0,1.1-0.9,2-2,2S23.5,456.2,23.5,455.1"/>
	</g>
	<g>
		<path class="st4" d="M40.8,506.2c0-1.1,0.9-2,2-2s2,0.9,2,2s-0.9,2-2,2S40.8,507.3,40.8,506.2"/>
	</g>
	<g>
		<path class="st4" d="M58,403.9c0-1.1,0.9-2,2-2s2,0.9,2,2s-0.9,2-2,2S58,405.1,58,403.9"/>
	</g>
	<g>
		<path class="st4" d="M75.3,506.2c0-1.1,0.9-2,2-2s2,0.9,2,2s-0.9,2-2,2S75.3,507.3,75.3,506.2"/>
	</g>
	<g>
		<path class="st4" d="M92.5,506.2c0-1.1,0.9-2,2-2c1.1,0,2,0.9,2,2s-0.9,2-2,2C93.4,508.2,92.5,507.3,92.5,506.2"/>
	</g>
	<g>
		<path class="st4" d="M109.7,199.5c0-1.1,0.9-2,2-2c1.1,0,2,0.9,2,2c0,1.1-0.9,2-2,2C110.6,201.5,109.7,200.6,109.7,199.5"/>
	</g>
	<g>
		<path class="st4" d="M127,352.8c0-1.1,0.9-2,2-2c1.1,0,2,0.9,2,2c0,1.1-0.9,2-2,2C127.9,354.8,127,353.9,127,352.8"/>
	</g>
	<g>
		<path class="st4" d="M144.2,403.9c0-1.1,0.9-2,2-2c1.1,0,2,0.9,2,2s-0.9,2-2,2C145.1,405.9,144.2,405.1,144.2,403.9"/>
	</g>
	<g>
		<path class="st4" d="M161.5,403.9c0-1.1,0.9-2,2-2c1.1,0,2,0.9,2,2s-0.9,2-2,2C162.4,405.9,161.5,405.1,161.5,403.9"/>
	</g>
	<g>
		<path class="st4" d="M178.7,403.9c0-1.1,0.9-2,2-2c1.1,0,2,0.9,2,2s-0.9,2-2,2C179.6,405.9,178.7,405.1,178.7,403.9"/>
	</g>
	<g>
		<path class="st4" d="M195.9,455.1c0-1.1,0.9-2,2-2c1.1,0,2,0.9,2,2c0,1.1-0.9,2-2,2C196.8,457.1,195.9,456.2,195.9,455.1"/>
	</g>
	<g>
		<path class="st4" d="M213.2,455.1c0-1.1,0.9-2,2-2c1.1,0,2,0.9,2,2c0,1.1-0.9,2-2,2C214.1,457.1,213.2,456.2,213.2,455.1"/>
	</g>
	<g>
		<path class="st4" d="M230.4,199.5c0-1.1,0.9-2,2-2c1.1,0,2,0.9,2,2c0,1.1-0.9,2-2,2C231.3,201.5,230.4,200.6,230.4,199.5"/>
	</g>
	<g>
		<path class="st4" d="M247.7,403.9c0-1.1,0.9-2,2-2c1.1,0,2,0.9,2,2s-0.9,2-2,2C248.6,405.9,247.7,405.1,247.7,403.9"/>
	</g>
	<g>
		<path class="st4" d="M264.9,148.4c0-1.1,0.9-2,2-2c1.1,0,2,0.9,2,2c0,1.1-0.9,2-2,2C265.8,150.4,264.9,149.5,264.9,148.4"/>
	</g>
	<g>
		<path class="st4" d="M282.1,403.9c0-1.1,0.9-2,2-2c1.1,0,2,0.9,2,2s-0.9,2-2,2C283,405.9,282.1,405.1,282.1,403.9"/>
	</g>
	<g>
		<path class="st4" d="M299.4,403.9c0-1.1,0.9-2,2-2c1.1,0,2,0.9,2,2s-0.9,2-2,2C300.3,405.9,299.4,405.1,299.4,403.9"/>
	</g>
	<g>
		<path class="st4" d="M316.6,403.9c0-1.1,0.9-2,2-2c1.1,0,2,0.9,2,2s-0.9,2-2,2C317.5,405.9,316.6,405.1,316.6,403.9"/>
	</g>
	<g>
		<path class="st4" d="M333.9,352.8c0-1.1,0.9-2,2-2c1.1,0,2,0.9,2,2c0,1.1-0.9,2-2,2C334.8,354.8,333.9,353.9,333.9,352.8"/>
	</g>
	<g>
		<path class="st4" d="M351.1,46.2c0-1.1,0.9-2,2-2c1.1,0,2,0.9,2,2s-0.9,2-2,2C352,48.2,351.1,47.3,351.1,46.2"/>
	</g>
	<g>
		<path class="st4" d="M368.4,506.2c0-1.1,0.9-2,2-2s2,0.9,2,2s-0.9,2-2,2S368.4,507.3,368.4,506.2"/>
	</g>
	<g>
		<path class="st4" d="M385.6,506.2c0-1.1,0.9-2,2-2s2,0.9,2,2s-0.9,2-2,2S385.6,507.3,385.6,506.2"/>
	</g>
	<g>
		<path class="st4" d="M402.8,352.8c0-1.1,0.9-2,2-2c1.1,0,2,0.9,2,2c0,1.1-0.9,2-2,2C403.7,354.8,402.8,353.9,402.8,352.8"/>
	</g>
	<g>
		<path class="st4" d="M420.1,506.2c0-1.1,0.9-2,2-2c1.1,0,2,0.9,2,2s-0.9,2-2,2C421,508.2,420.1,507.3,420.1,506.2"/>
	</g>
	<g>
		<path class="st4" d="M437.3,455.1c0-1.1,0.9-2,2-2s2,0.9,2,2c0,1.1-0.9,2-2,2S437.3,456.2,437.3,455.1"/>
	</g>
	<g>
		<path class="st4" d="M454.6,455.1c0-1.1,0.9-2,2-2s2,0.9,2,2c0,1.1-0.9,2-2,2S454.6,456.2,454.6,455.1"/>
	</g>
	<g>
		<path class="st4" d="M471.8,506.2c0-1.1,0.9-2,2-2c1.1,0,2,0.9,2,2s-0.9,2-2,2C472.7,508.2,471.8,507.3,471.8,506.2"/>
	</g>
	<g>
		<path class="st4" d="M489,455.1c0-1.1,0.9-2,2-2c1.1,0,2,0.9,2,2c0,1.1-0.9,2-2,2C489.9,457.1,489,456.2,489,455.1"/>
	</g>
	<g>
		<path class="st4" d="M506.3,403.9c0-1.1,0.9-2,2-2c1.1,0,2,0.9,2,2s-0.9,2-2,2C507.2,405.9,506.3,405.1,506.3,403.9"/>
	</g>
	<g>
		<path class="st4" d="M523.5,199.5c0-1.1,0.9-2,2-2s2,0.9,2,2c0,1.1-0.9,2-2,2S523.5,200.6,523.5,199.5"/>
	</g>
</g>
</svg>
